<svg width="150" height="194" viewBox="0 0 150 194" fill="none" xmlns="http://www.w3.org/2000/svg">
<path d="M82.5 74.9766C90.7383 74.9766 97.5 68.2383 97.5 59.9953V14.7891C97.5 6.73828 90.7734 0 82.5 0H15C6.73828 0 0 6.73828 0 14.7891V59.7891C0 68.25 6.73828 75 15 75L22.5 75.0025V87.7173C22.5 89.0625 23.625 90.0234 24.7969 90.0234C25.2518 90.0234 25.717 89.8834 26.1326 89.5739L45.5271 75.0145L82.5 74.9766ZM45.5156 71.25H44.2734L26.25 84.7969V71.25H15C8.79609 71.25 3.75 66.2039 3.75 60.2109V14.9977C3.75 8.79609 8.79609 3.75 15 3.75H82.5C88.7039 3.75 93.75 8.79609 93.75 14.9977V59.9977C93.75 66.1852 88.7273 71.2172 82.4977 71.2172L45.5156 71.25ZM135 30H110.625C109.59 30 108.75 30.8395 108.75 31.875C108.75 32.9105 109.59 33.75 110.625 33.75H135C141.213 33.75 146.25 38.7867 146.25 45V89.7891C146.25 96.0023 141.213 100.828 135.002 100.828H123.75V114.361L105.724 100.828H75C68.7867 100.828 63.75 95.7914 63.75 89.5781V87.7099C63.75 86.6745 62.9105 85.8349 61.875 85.8349C60.8395 85.8349 60 86.6745 60 87.7099V89.5809C60 97.8309 66.75 104.37 74.7891 104.37L104.273 104.368L123.668 118.928C124.289 119.859 124.758 120 125.203 120C126.375 120 127.5 118.852 127.5 117.703V104.991H135C143.25 104.991 150 98.2406 150 90.2016V44.7891C150 36.75 143.25 30 135 30Z" fill="white"/>
<path d="M21.808 186.416C20.6027 186.416 19.44 186.229 18.32 185.856C17.2 185.472 16.2187 184.928 15.376 184.224C14.544 183.52 13.952 182.683 13.6 181.712L16.112 180.768C16.3253 181.365 16.72 181.888 17.296 182.336C17.8827 182.773 18.5707 183.115 19.36 183.36C20.1493 183.605 20.9653 183.728 21.808 183.728C22.768 183.728 23.6587 183.573 24.48 183.264C25.312 182.944 25.984 182.501 26.496 181.936C27.008 181.371 27.264 180.709 27.264 179.952C27.264 179.173 26.9973 178.539 26.464 178.048C25.9307 177.547 25.248 177.152 24.416 176.864C23.584 176.565 22.7147 176.336 21.808 176.176C20.2613 175.92 18.8747 175.557 17.648 175.088C16.432 174.608 15.4667 173.941 14.752 173.088C14.048 172.235 13.696 171.109 13.696 169.712C13.696 168.411 14.0693 167.275 14.816 166.304C15.5733 165.333 16.5707 164.581 17.808 164.048C19.0453 163.515 20.3787 163.248 21.808 163.248C22.992 163.248 24.1387 163.435 25.248 163.808C26.368 164.171 27.3547 164.704 28.208 165.408C29.0613 166.112 29.6747 166.971 30.048 167.984L27.504 168.912C27.2907 168.304 26.8907 167.781 26.304 167.344C25.728 166.896 25.0453 166.555 24.256 166.32C23.4773 166.075 22.6613 165.952 21.808 165.952C20.8587 165.941 19.9733 166.096 19.152 166.416C18.3307 166.736 17.664 167.179 17.152 167.744C16.64 168.309 16.384 168.965 16.384 169.712C16.384 170.608 16.6187 171.296 17.088 171.776C17.568 172.245 18.2187 172.597 19.04 172.832C19.8613 173.067 20.784 173.275 21.808 173.456C23.2587 173.701 24.6027 174.091 25.84 174.624C27.0773 175.147 28.0693 175.845 28.816 176.72C29.5733 177.595 29.952 178.672 29.952 179.952C29.952 181.253 29.5733 182.389 28.816 183.36C28.0693 184.331 27.0773 185.083 25.84 185.616C24.6027 186.149 23.2587 186.416 21.808 186.416ZM40.335 186.416C38.863 186.416 37.519 186.037 36.303 185.28C35.0977 184.523 34.1323 183.509 33.407 182.24C32.6923 180.96 32.335 179.547 32.335 178C32.335 176.827 32.543 175.733 32.959 174.72C33.375 173.696 33.9457 172.8 34.671 172.032C35.407 171.253 36.2603 170.645 37.231 170.208C38.2017 169.771 39.2363 169.552 40.335 169.552C41.807 169.552 43.1457 169.931 44.351 170.688C45.567 171.445 46.5323 172.464 47.247 173.744C47.9723 175.024 48.335 176.443 48.335 178C48.335 179.163 48.127 180.251 47.711 181.264C47.295 182.277 46.719 183.173 45.983 183.952C45.2577 184.72 44.4097 185.323 43.439 185.76C42.479 186.197 41.4443 186.416 40.335 186.416ZM40.335 183.728C41.3377 183.728 42.239 183.467 43.039 182.944C43.8497 182.411 44.4843 181.712 44.943 180.848C45.4123 179.973 45.647 179.024 45.647 178C45.647 176.955 45.407 175.995 44.927 175.12C44.4577 174.245 43.823 173.547 43.023 173.024C42.223 172.501 41.327 172.24 40.335 172.24C39.3323 172.24 38.431 172.507 37.631 173.04C36.831 173.563 36.1963 174.261 35.727 175.136C35.2577 176.011 35.023 176.965 35.023 178C35.023 179.067 35.263 180.037 35.743 180.912C36.223 181.776 36.8683 182.464 37.679 182.976C38.4897 183.477 39.375 183.728 40.335 183.728ZM61.9128 181.776L64.3128 183.072C63.5874 184.085 62.6648 184.896 61.5448 185.504C60.4354 186.112 59.2301 186.416 57.9288 186.416C56.4568 186.416 55.1128 186.037 53.8968 185.28C52.6914 184.523 51.7261 183.509 51.0008 182.24C50.2861 180.96 49.9288 179.547 49.9288 178C49.9288 176.827 50.1368 175.733 50.5528 174.72C50.9688 173.696 51.5394 172.8 52.2648 172.032C53.0008 171.253 53.8541 170.645 54.8248 170.208C55.7954 169.771 56.8301 169.552 57.9288 169.552C59.2301 169.552 60.4354 169.856 61.5448 170.464C62.6648 171.072 63.5874 171.888 64.3128 172.912L61.9128 174.208C61.4008 173.579 60.7928 173.093 60.0888 172.752C59.3848 172.411 58.6648 172.24 57.9288 172.24C56.9368 172.24 56.0354 172.507 55.2248 173.04C54.4248 173.563 53.7901 174.261 53.3208 175.136C52.8514 176.011 52.6168 176.965 52.6168 178C52.6168 179.035 52.8514 179.989 53.3208 180.864C53.8008 181.728 54.4408 182.421 55.2408 182.944C56.0514 183.467 56.9474 183.728 57.9288 183.728C58.7181 183.728 59.4594 183.547 60.1528 183.184C60.8461 182.821 61.4328 182.352 61.9128 181.776ZM66.8263 170H69.5143V186H66.8263V170ZM68.2023 167.392C67.7756 167.392 67.4183 167.253 67.1303 166.976C66.8423 166.699 66.6983 166.352 66.6983 165.936C66.6983 165.52 66.8423 165.173 67.1303 164.896C67.4183 164.619 67.7703 164.48 68.1863 164.48C68.6023 164.48 68.9543 164.619 69.2423 164.896C69.5303 165.173 69.6743 165.52 69.6743 165.936C69.6743 166.352 69.5303 166.699 69.2423 166.976C68.9649 167.253 68.6183 167.392 68.2023 167.392ZM86.0028 170H88.6908V186H86.0028L85.8908 183.296C85.3894 184.224 84.6961 184.976 83.8108 185.552C82.9361 186.128 81.8908 186.416 80.6748 186.416C79.5014 186.416 78.4028 186.197 77.3788 185.76C76.3548 185.312 75.4481 184.699 74.6588 183.92C73.8801 183.131 73.2721 182.224 72.8348 181.2C72.3974 180.176 72.1788 179.072 72.1788 177.888C72.1788 176.747 72.3921 175.669 72.8188 174.656C73.2454 173.643 73.8374 172.757 74.5948 172C75.3628 171.232 76.2481 170.635 77.2508 170.208C78.2534 169.771 79.3308 169.552 80.4828 169.552C81.7414 169.552 82.8454 169.851 83.7948 170.448C84.7441 171.035 85.5121 171.797 86.0988 172.736L86.0028 170ZM80.6267 183.808C81.6828 183.808 82.5948 183.552 83.3628 183.04C84.1414 182.517 84.7388 181.813 85.1548 180.928C85.5814 180.043 85.7948 179.067 85.7948 178C85.7948 176.912 85.5814 175.931 85.1548 175.056C84.7281 174.171 84.1254 173.472 83.3468 172.96C82.5788 172.437 81.6721 172.176 80.6267 172.176C79.5708 172.176 78.6108 172.437 77.7468 172.96C76.8828 173.483 76.1948 174.187 75.6828 175.072C75.1814 175.947 74.9308 176.923 74.9308 178C74.9308 179.077 75.1921 180.059 75.7148 180.944C76.2374 181.819 76.9308 182.517 77.7948 183.04C78.6588 183.552 79.6028 183.808 80.6267 183.808ZM92.0763 186V162H94.7643V186H92.0763ZM98.6075 170H101.296V186H98.6075V170ZM99.9835 167.392C99.5568 167.392 99.1995 167.253 98.9115 166.976C98.6235 166.699 98.4795 166.352 98.4795 165.936C98.4795 165.52 98.6235 165.173 98.9115 164.896C99.1995 164.619 99.5515 164.48 99.9675 164.48C100.384 164.48 100.736 164.619 101.024 164.896C101.312 165.173 101.456 165.52 101.456 165.936C101.456 166.352 101.312 166.699 101.024 166.976C100.746 167.253 100.4 167.392 99.9835 167.392ZM118.163 172.688L108.323 183.312H118.163V186H104.499V183.312L114.339 172.688H104.499V170H118.163V172.688ZM128.179 186.416C126.707 186.416 125.363 186.037 124.147 185.28C122.941 184.523 121.976 183.509 121.251 182.24C120.536 180.96 120.179 179.547 120.179 178C120.179 176.827 120.387 175.733 120.803 174.72C121.219 173.696 121.789 172.8 122.515 172.032C123.251 171.253 124.104 170.645 125.075 170.208C126.045 169.771 127.08 169.552 128.179 169.552C129.384 169.552 130.488 169.797 131.491 170.288C132.504 170.768 133.368 171.44 134.083 172.304C134.808 173.168 135.347 174.171 135.699 175.312C136.061 176.453 136.195 177.675 136.099 178.976H123.043C123.171 179.883 123.469 180.693 123.939 181.408C124.408 182.112 125.005 182.672 125.731 183.088C126.467 183.504 127.283 183.717 128.179 183.728C129.139 183.728 130.008 183.483 130.787 182.992C131.565 182.491 132.195 181.808 132.675 180.944L135.411 181.584C134.771 183.003 133.805 184.165 132.515 185.072C131.224 185.968 129.779 186.416 128.179 186.416ZM122.963 176.864H133.395C133.309 175.968 133.021 175.152 132.531 174.416C132.04 173.669 131.416 173.072 130.659 172.624C129.901 172.176 129.075 171.952 128.179 171.952C127.283 171.952 126.461 172.171 125.715 172.608C124.968 173.045 124.349 173.637 123.859 174.384C123.379 175.12 123.08 175.947 122.963 176.864Z" fill="white"/>
</svg>
